<?xml version="1.0" encoding="UTF-8"?>
<svg id="Calque_1" xmlns="http://www.w3.org/2000/svg" version="1.1" viewBox="0 0 850 850">
  <!-- Generator: Adobe Illustrator 30.0.0, SVG Export Plug-In . SVG Version: 2.1.1 Build 123)  -->
  <defs>
    <style>
      .st0 {
        fill: #93868a;
      }

      .st1 {
        fill: #bfb2c3;
      }

      .st2 {
        fill: #010101;
      }
    </style>
  </defs>
  <g>
    <g>
      <polygon class="st0" points="139.54 366.53 298 332.06 404.75 242.5 380.67 120.2 492.62 211.49 492.62 681.72 425.45 598.49 366.85 559.19 280.76 584.81 344.46 677.46 217.01 618.86 258.37 677.46 62.02 626.5 15.5 602.56 56.86 565.51 0 531.88 99.91 404.05 139.54 366.53"/>
      <polygon class="st0" points="710.51 371.55 552.05 337.07 357.38 686.73 424.55 603.5 483.15 564.2 569.24 589.82 505.54 682.47 632.99 623.87 591.63 682.47 787.98 631.51 834.5 607.62 793.18 570.52 850 536.89 750.09 409.11 710.51 371.55"/>
      <polygon class="st1" points="682.83 540.66 745.51 609.75 716.42 654.11 539.79 709.99 472.62 782.22 435.89 798.66 435.89 527.17 682.83 540.66"/>
      <polygon class="st1" points="192.79 520.94 126.28 609.75 155.37 654.11 332 709.99 399.17 782.22 435.89 798.66 435.89 527.17 192.79 520.94"/>
      <path class="st1" d="M734.64,326.7s50.35-65.48,79.44-217.2c-137.15,39.49-198.32,32.88-277.29,101.27,31.85,70.45,111.29,116.91,111.29,116.91l86.56-.98Z"/>
      <path class="st1" d="M147.08,276.3s-48.48-79.3-10.4-228.95c96.02,84.03,162.49,81.31,202.91,148.34,4.78,7.96,2.15,20,0,28.76-27.96,74.52-146.7,160.66-176.77,137.01l-15.74-85.11v-.05Z"/>
      <polyline class="st0" points="707.43 566.8 772.53 441.27 707.43 402.2 760.08 309.65 707.43 312.36 616 285.38 551.59 226.04 472.62 226.04 472.62 609.75"/>
      <polyline class="st0" points="391.96 609.75 391.96 226.04 313.03 226.04 248.58 285.38 157.19 312.36 126.28 304.12 157.19 402.2 100.66 425.86 157.19 566.8"/>
      <polygon class="st2" points="472.62 709.99 435.89 719.36 435.89 671.07 472.62 678.84 474.87 695.24 472.62 709.99"/>
      <polygon class="st2" points="474.87 695.24 446.76 695.24 435.89 671.07 458.42 668.21 472.62 678.84 474.87 695.24"/>
      <polygon class="st2" points="396.6 695.24 425.31 695.24 436.17 671.07 413.6 668.21 399.17 678.84 396.6 695.24"/>
      <polygon class="st2" points="399.17 709.99 435.89 719.36 435.89 671.07 399.17 678.84 396.92 695.24 399.17 709.99"/>
      <polygon class="st0" points="441.61 625.44 436.17 625.44 436.17 226.04 472.62 226.04 472.62 609.75 441.61 625.44"/>
      <polygon class="st0" points="422.97 625.44 428.45 625.44 428.45 226.04 391.96 226.04 391.96 609.75 422.97 625.44"/>
      <polyline class="st0" points="384.65 226.04 472.62 226.04 472.62 609.75 441.61 625.44 422.97 625.44 402.36 615"/>
      <polygon class="st0" points="313.02 226.04 306.79 196.06 263.19 158.68 407.22 192.59 359.44 124.02 519.45 180.84 551.58 226.04 313.02 226.04"/>
      <polygon class="st1" points="716.42 654.11 501.42 751.26 539.79 709.99 716.42 654.11"/>
      <polygon class="st1" points="155.88 654.11 370.93 751.26 332.52 709.99 155.88 654.11"/>
      <polygon class="st1" points="509.9 604.74 584.7 543.94 577.4 600.06 648.08 559.12 633.51 587.55 567 624.32 509.9 604.74"/>
      <polygon class="st1" points="363.06 604.74 288.25 543.94 295.51 600.06 224.88 559.12 239.4 587.55 305.91 624.32 363.06 604.74"/>
      <polygon class="st1" points="553.28 533.17 490.93 544.32 455.71 585.86 433.93 628.58 531.03 614.34 571.26 557.48 553.28 533.17"/>
      <polygon class="st1" points="318.79 533.17 381.14 544.32 416.36 585.86 438.14 628.58 341.04 614.34 300.76 557.48 318.79 533.17"/>
      <polygon class="st1" points="438.14 309.65 474.87 388.62 438.14 388.62 438.14 309.65"/>
      <polygon class="st1" points="438.14 309.65 401.47 388.62 438.14 388.62 438.14 309.65"/>
      <polygon class="st1" points="438.14 467.59 474.87 388.62 438.14 388.62 438.14 467.59"/>
      <polygon class="st1" points="438.14 467.59 401.47 388.62 438.14 388.62 438.14 467.59"/>
      <polygon class="st0" points="458.42 668.21 436.17 625.44 413.6 668.21 435.89 671.07 458.42 668.21"/>
      <polygon class="st1" points="332 709.99 216.54 719.36 224.88 654.11 332 709.99"/>
      <polygon class="st1" points="557.87 703.24 673.33 712.61 665.04 647.32 557.87 703.24"/>
      <polygon class="st2" points="503.48 554.34 563.11 485.3 643.02 497.38 615.62 554.34 519.46 561.83 503.48 554.34"/>
      <polygon class="st2" points="370.55 554.34 310.88 485.3 231.01 497.38 258.42 554.34 354.58 561.83 370.55 554.34"/>
    </g>
    <polygon class="st1" points="410.23 388.62 387.93 345.9 420.2 360.98 410.23 388.62"/>
    <polygon class="st1" points="467.89 383.05 475.05 324.31 454.4 349.41 467.89 383.05"/>
  </g>
  <polygon class="st1" points="738.18 600.51 777.59 654.11 700.91 654.11 738.18 600.51"/>
  <polygon class="st1" points="129.5 605.26 90.09 658.85 166.77 658.85 129.5 605.26"/>
</svg>