<svg width="30" height="21" viewBox="0 0 30 21" fill="none" xmlns="http://www.w3.org/2000/svg">
<line y1="19.5" x2="29" y2="19.5" stroke="#0A0A0A"/>
<line x1="0.5" y1="20" x2="0.499999" y2="2.18557e-08" stroke="black"/>
<path d="M0 0.5H29M1 19L13 7L20.5 14.5M25.5 19.5L20.5 14.5M20.5 14.5L25 10L28.5 13.5" stroke="#070707"/>
<path d="M5 5L7 7M6 2.5L9 3.5M2.5 6L3 9" stroke="black"/>
<path d="M9.5 9.99994L11.5 11.9999L13 10.4999L14.5 11.9999L16.5 9.99995M23 11.9999L25 13.9999L27 11.9999M28.5 5.99995C26.6667 5.99995 22.6 5.99995 21 5.99995C19 5.99995 19 3.99995 21 3.99995H22.5C22.5 2.99995 24 1.99995 25 2.99995C26 1.99992 27 0.99989 28.5 1.99992C28.5 2.79993 28.5 4.99995 28.5 5.99995Z" stroke="black"/>
<path d="M5 0.5C5.5 4.5 3 5.5 0.5 5" stroke="black"/>
<line x1="28.5" y1="2.18557e-08" x2="28.5" y2="19" stroke="black"/>
<path d="M10 10L16.9282 16.75H3.0718L10 10Z" fill="black"/>
<path d="M13 10L16.4641 16H9.5359L13 10Z" fill="black"/>
<path d="M16 10L22.9282 17.5H9.0718L16 10Z" fill="black"/>
<rect x="4" y="16" width="24" height="3" fill="black"/>
<path d="M4.8837 19.1161L1.57804 19.0734L4.84102 15.8104L4.8837 19.1161Z" fill="black"/>
<path d="M28.1161 16.1161L24.8105 16.0734L28.0734 12.8104L28.1161 16.1161Z" fill="black"/>
<path d="M25.242 16.7213L22.2762 15.9926L24.4273 13.778L25.242 16.7213Z" fill="black"/>
<path d="M26.6642 12L28.9715 14.3676L24.3569 14.3676L26.6642 12Z" fill="black"/>
<path d="M23.6642 12L25.9715 14.3676L21.3569 14.3676L23.6642 12Z" fill="black"/>
<path d="M22.6644 16.1567L20.3571 13.7891L24.9717 13.7891L22.6644 16.1567Z" fill="black"/>
<path d="M25.5 17L23.3349 14L27.6651 14L25.5 17Z" fill="black"/>
<circle cx="2.5" cy="2.5" r="2.5" fill="black"/>
<line x1="0.646447" y1="4.64645" x2="4.64645" y2="0.646447" stroke="black"/>
<rect x="20" y="4" width="8" height="2" fill="black"/>
<rect x="23" y="3" width="5" height="2" fill="black"/>
<circle cx="27" cy="4" r="2" fill="black"/>
</svg>
